<svg width="34" height="34" viewBox="0 0 34 34" fill="none" xmlns="http://www.w3.org/2000/svg">
<path d="M12.8353 2.73417C10.1578 2.72001 7.55116 5.29834 8.74116 8.50001H4.25033C3.49888 8.50001 2.77821 8.79852 2.24686 9.32987C1.7155 9.86122 1.41699 10.5819 1.41699 11.3333V14.1667C1.41699 14.5424 1.56625 14.9027 1.83192 15.1684C2.0976 15.4341 2.45794 15.5833 2.83366 15.5833H15.5837V11.3333H18.417V15.5833H31.167C31.5427 15.5833 31.9031 15.4341 32.1687 15.1684C32.4344 14.9027 32.5837 14.5424 32.5837 14.1667V11.3333C32.5837 10.5819 32.2851 9.86122 31.7538 9.32987C31.2224 8.79852 30.5018 8.50001 29.7503 8.50001H25.2595C26.917 3.86751 20.6837 0.595007 17.8078 4.59001L17.0003 5.66667L16.1928 4.56167C15.3003 3.30084 14.0678 2.74834 12.8353 2.73417ZM12.7503 5.66667C14.0112 5.66667 14.6487 7.19667 13.7562 8.08917C12.8637 8.98167 11.3337 8.34417 11.3337 7.08334C11.3337 6.70762 11.4829 6.34728 11.7486 6.08161C12.0143 5.81593 12.3746 5.66667 12.7503 5.66667ZM21.2503 5.66667C22.5112 5.66667 23.1487 7.19667 22.2562 8.08917C21.3637 8.98167 19.8337 8.34417 19.8337 7.08334C19.8337 6.70762 19.9829 6.34728 20.2486 6.08161C20.5143 5.81593 20.8746 5.66667 21.2503 5.66667ZM2.83366 17V28.3333C2.83366 29.0848 3.13217 29.8055 3.66352 30.3368C4.19488 30.8682 4.91555 31.1667 5.66699 31.1667H28.3337C29.0851 31.1667 29.8058 30.8682 30.3371 30.3368C30.8685 29.8055 31.167 29.0848 31.167 28.3333V17H18.417V28.3333H15.5837V17H2.83366Z" fill="white"/>
</svg>
